<?xml version="1.0" standalone="no"?>
<!DOCTYPE svg PUBLIC "-//W3C//DTD SVG 20010904//EN"
 "http://www.w3.org/TR/2001/REC-SVG-20010904/DTD/svg10.dtd">
<svg version="1.0" xmlns="http://www.w3.org/2000/svg"
 width="260.000000pt" height="260.000000pt" viewBox="0 0 260.000000 260.000000"
 preserveAspectRatio="xMidYMid meet">
<metadata>
Created by potrace 1.11, written by Peter Selinger 2001-2013
</metadata>
<g transform="translate(0.000000,260.000000) scale(0.100000,-0.100000)"
fill="#000000" stroke="none">
<path d="M0 2185 l0 -85 1300 0 1300 0 0 85 0 85 -1300 0 -1300 0 0 -85z"/>
<path d="M548 1930 c-243 -39 -439 -195 -515 -410 -35 -98 -43 -270 -19 -374
36 -151 148 -306 280 -385 206 -123 485 -131 724 -20 l82 38 0 280 0 281 -240
0 -240 0 0 -90 0 -90 145 0 145 0 0 -138 0 -139 -52 -17 c-71 -24 -212 -32
-290 -16 -142 27 -253 111 -315 236 -34 70 -37 83 -41 185 -6 134 12 211 68
297 88 137 234 199 440 189 90 -5 211 -28 273 -52 15 -7 17 1 17 83 0 56 -4
93 -11 98 -59 36 -332 63 -451 44z"/>
<path d="M1160 1894 c0 -4 47 -158 105 -343 57 -185 140 -451 183 -591 l79
-255 30 -3 30 -3 121 273 c66 150 131 297 144 327 l24 55 149 -328 149 -327
30 3 31 3 182 590 c101 325 183 594 183 598 0 4 -42 6 -92 5 l-93 -3 -115
-382 c-64 -210 -118 -384 -120 -386 -3 -3 -66 130 -140 294 -115 254 -138 299
-156 299 -18 0 -41 -44 -155 -299 -74 -164 -136 -297 -139 -296 -3 2 -57 177
-120 389 l-115 386 -97 0 c-54 0 -98 -3 -98 -6z"/>
<path d="M0 415 l0 -85 1300 0 1300 0 0 85 0 85 -1300 0 -1300 0 0 -85z"/>
</g>
</svg>
